<svg width="893" height="366" viewBox="0 0 893 366" fill="none" xmlns="http://www.w3.org/2000/svg">
<path d="M213.521 286.786C212.51 286.43 211.528 286.044 210.547 285.688C201.269 282.306 192.497 279.369 184.052 276.847C144.177 264.89 112.151 262.546 74.0893 270.053H74.0596C63.1465 272.189 51.7577 275.126 39.5363 278.894C33.4999 280.733 27.2851 282.78 20.8027 285.035C19.1375 285.599 17.4723 286.192 15.7773 286.786" stroke="#7ED21A" stroke-width="8"/>
<path d="M73.6279 269.957C74.0095 270.163 74.3618 270.37 74.7728 270.577H74.8021C108.501 288.467 132.69 304.94 151.8 324.779C157.201 330.418 162.22 336.323 166.917 342.581C169.207 345.622 171.408 348.751 173.551 351.999" stroke="#7ED21A" stroke-width="8"/>
<path d="M210.365 288.889C191.867 297.322 172.745 308.939 150.857 324.348C150.709 324.439 150.56 324.56 150.411 324.651" stroke="#7ED21A" stroke-width="8"/>
<path d="M184.71 278.538C169.379 285.702 153.28 294.93 135.36 306.463" stroke="#7ED21A" stroke-width="8"/>
<path d="M165.137 342.532C165.406 342.381 165.616 342.199 165.885 342.017C183.041 330.382 198.64 320.808 213.521 313.081" stroke="#7ED21A" stroke-width="8"/>
<path d="M141.996 360.413C118.23 326.523 88.4764 303.87 39.6323 278.757L38.9175 278.371" stroke="#7ED21A" stroke-width="8"/>
<path d="M248.811 251.359L249.007 251.471C249.091 251.191 249.175 250.883 249.259 250.575L248.811 251.359Z" fill="white"/>
<path d="M247.312 157.301H247.519L243.406 151.679C241.335 148.868 239.174 146.116 236.896 143.483C222.871 127.031 202.039 110.165 173.189 101.998C160.969 98.3582 148.038 96.4053 134.634 96.4053C123.685 96.4053 113.063 97.7072 102.884 100.163L101.404 100.429L101.463 100.518C43.142 115.313 0 168.131 0 231.039C0 305.398 60.2745 365.673 134.634 365.673C138.983 365.673 143.303 365.465 147.564 365.051C157.921 364.075 167.922 361.915 177.45 358.719C209.17 348.096 235.624 325.963 251.869 297.291C256.041 289.923 259.532 282.111 262.284 273.974C264.622 266.991 266.427 259.741 267.61 252.284C268.705 245.36 269.267 238.259 269.267 231.039C269.267 203.816 261.189 178.487 247.312 157.301ZM171.148 110.668C194.79 117.828 215.473 131.736 230.949 150.17C231.156 150.436 231.363 150.673 231.57 150.91C205.235 154.934 182.48 155.496 163.217 149.549C143.895 143.571 127.65 130.848 114.779 107.265C136.439 104.335 155.139 106.081 171.148 110.668ZM210.088 331.644C198.873 340.077 186.209 346.676 172.509 350.996C162.685 354.103 152.328 356.026 141.617 356.589C139.309 356.736 136.971 356.796 134.634 356.796C84.7157 356.796 41.5737 327.679 21.2751 285.514C16.0377 274.654 12.3094 262.937 10.386 250.627L109.009 197.632C117.56 193.046 127.858 193.164 136.261 197.987L188.665 227.932L209.348 239.738C209.792 240.005 210.088 240.478 210.088 240.981V331.644ZM207.928 228.701L196.003 221.896C195.559 221.629 195.263 221.156 195.263 220.653V195.857C195.263 194.703 196.536 193.992 197.542 194.584L209.378 201.982C209.792 202.278 210.058 202.751 210.058 203.254V227.459C210.058 228.553 208.875 229.264 207.898 228.701H207.928ZM255.449 266.073C254.472 269.358 253.407 272.613 252.164 275.779C248.673 284.981 244.146 293.651 238.671 301.67C233.049 309.985 226.421 317.589 218.965 324.306V247.728C218.965 246.633 220.148 245.923 221.125 246.485L238.731 256.545L255.242 265.955L255.715 265.126C255.626 265.452 255.538 265.777 255.449 266.073ZM258.437 253.202C258.201 254.533 257.964 255.835 257.668 257.137L252.283 254.03L221.184 236.276C219.823 235.507 218.965 234.028 218.965 232.459V203.254C218.965 199.674 217.13 196.36 214.112 194.466L202.276 187.068C195.382 182.748 186.416 187.719 186.416 195.857V213.906C186.416 215.001 185.232 215.711 184.256 215.149L140.67 190.264C129.603 183.932 116.051 183.754 104.807 189.82L9.26161 241.159C9.02489 237.815 8.87695 234.442 8.87695 231.039C8.87695 171.623 50.0956 121.823 105.488 108.685C119.484 135.819 137.977 151.028 160.584 158.011C183.013 164.965 208.993 163.663 237.695 158.929C251.987 179.346 260.39 204.231 260.39 231.039C260.39 238.614 259.71 246.011 258.437 253.202Z" fill="white"/>
<path d="M242.65 130.064C270.139 78.6438 263.214 51.807 215.787 7C190.417 64.232 196.267 91.217 242.65 130.064Z" stroke="#7ED21A" stroke-width="8"/>
<path d="M851.023 211.449C864.894 208.756 868.869 203.346 870.001 187.561C855.365 191.543 851.197 196.774 851.023 211.449Z" fill="#7ED21A" stroke="#7ED21A" stroke-width="3"/>
<path d="M380.438 98.3695V187.969H365.206V112.833H322.454V187.969H307.222V98.3695H380.438ZM439.43 189.249C415.366 189.249 393.862 171.073 393.862 143.169C393.862 115.521 415.366 97.0895 439.43 97.0895C463.366 97.0895 484.998 115.521 484.998 143.169C484.998 171.073 463.366 189.249 439.43 189.249ZM409.606 143.169C409.606 162.369 423.558 174.273 439.43 174.273C455.174 174.273 469.254 162.369 469.254 143.169C469.254 124.225 455.174 112.065 439.43 112.065C423.558 112.065 409.606 124.225 409.606 143.169Z" fill="white"/>
<path d="M313.065 360.981C306.861 360.981 301.317 356.295 301.317 349.101C301.317 341.973 306.861 337.221 313.065 337.221C319.236 337.221 324.813 341.973 324.813 349.101C324.813 356.295 319.236 360.981 313.065 360.981ZM305.376 349.101C305.376 354.051 308.973 357.12 313.065 357.12C317.124 357.12 320.754 354.051 320.754 349.101C320.754 344.217 317.124 341.082 313.065 341.082C308.973 341.082 305.376 344.217 305.376 349.101ZM334.851 360.981C331.155 360.981 328.548 358.638 327.69 355.569L331.188 354.183C331.716 356.229 333.102 357.12 334.983 357.12C336.534 357.12 338.019 356.163 338.019 354.15C338.019 352.104 336.336 351.147 334.62 351.147H331.881V347.418H334.851C336.699 347.418 338.283 346.395 338.283 344.217C338.283 342.138 336.633 341.082 334.917 341.082C332.739 341.082 331.485 342.303 330.825 344.481L327.294 342.897C328.317 339.795 330.594 337.221 334.785 337.221C339.438 337.221 342.342 340.158 342.342 344.019C342.342 346.329 341.286 348.243 339.669 349.365C341.121 350.487 342.078 352.236 342.078 354.315C342.078 358.143 339.207 360.981 334.851 360.981ZM346.459 360.651V337.551H361.078V341.28H350.386V347.055H358.867V350.784H350.386V356.922H361.078V360.651H346.459ZM381.66 337.551V360.651H377.733V341.28H373.014L371.298 353.721C370.737 357.912 369.021 360.651 364.698 360.651H363.213V356.922H364.434C366.348 356.922 367.074 355.701 367.371 353.556L369.582 337.551H381.66ZM386.288 360.651V337.551H400.907V341.28H390.215V347.055H398.696V350.784H390.215V356.922H400.907V360.651H386.288ZM417.331 360.651V350.784H409.213L406.969 360.651H403.042L405.286 350.784H403.042V347.055H406.144L408.322 337.551H412.249L410.071 347.055H417.331V337.551H421.258V360.651H417.331ZM425.892 360.651V337.551H440.511V341.28H429.819V347.055H438.3V350.784H429.819V356.922H440.511V360.651H425.892ZM456.935 360.651V350.784H448.817L446.573 360.651H442.646L444.89 350.784H442.646V347.055H445.748L447.926 337.551H451.853L449.675 347.055H456.935V337.551H460.862V360.651H456.935ZM465.496 360.651V337.551H469.423V354.282L479.323 337.551H483.151V360.651H479.224V345.471L470.314 360.651H465.496ZM487.763 360.651V337.551H502.382V341.28H491.69V347.055H500.171V350.784H491.69V356.922H502.382V360.651H487.763ZM516.217 360.651V337.551H520.144V354.282L530.044 337.551H533.872V360.651H529.945V345.471L521.035 360.651H516.217ZM548.699 337.551H558.566V341.28H552.626V345.801H556.256C561.371 345.801 564.407 348.804 564.407 353.226C564.407 357.285 561.371 360.651 556.256 360.651H548.699V337.551ZM552.626 356.922H556.289C558.698 356.922 560.348 355.404 560.348 353.226C560.348 350.685 558.698 349.53 556.289 349.53H552.626V356.922ZM584.834 337.551V360.651H580.907V341.28H576.188L574.472 353.721C573.911 357.912 572.195 360.651 567.872 360.651H566.387V356.922H567.608C569.522 356.922 570.248 355.701 570.545 353.556L572.756 337.551H584.834ZM587.648 360.651L594.446 337.551H599.033L606.392 360.651H602.3L601.442 357.648H592.466L591.674 360.651H587.648ZM593.456 353.919H600.353L596.756 341.478L593.456 353.919ZM609.184 337.551H619.051V341.28H613.111V360.651H609.184V337.551ZM631.313 360.981C625.109 360.981 619.565 356.295 619.565 349.101C619.565 341.973 625.109 337.221 631.313 337.221C637.484 337.221 643.061 341.973 643.061 349.101C643.061 356.295 637.484 360.981 631.313 360.981ZM623.624 349.101C623.624 354.051 627.221 357.12 631.313 357.12C635.372 357.12 639.002 354.051 639.002 349.101C639.002 344.217 635.372 341.082 631.313 341.082C627.221 341.082 623.624 344.217 623.624 349.101ZM647.093 360.651V356.922H650.327L652.736 352.005L645.047 337.551H649.205L654.683 348.045L659.864 337.551H663.791L652.505 360.651H647.093ZM675.203 360.981C668.966 360.981 663.455 356.262 663.455 349.134C663.455 341.94 668.999 337.221 675.137 337.221C678.866 337.221 682.166 338.706 684.41 341.808L681.407 344.481C679.988 342.138 677.744 341.082 675.203 341.082C671.111 341.082 667.514 344.184 667.514 349.134C667.514 354.018 671.177 357.12 675.203 357.12C677.843 357.12 679.988 355.8 681.407 353.622L684.542 356.163C682.397 359.364 678.998 360.981 675.203 360.981ZM693.986 360.651V341.28H686.198V337.551H705.701V341.28H697.913V360.651H693.986ZM708.822 360.651V337.551H716.049C721.395 337.551 724.662 341.247 724.662 345.636C724.662 350.388 721.395 353.754 716.049 353.754H712.749V360.651H708.822ZM712.749 350.025H716.082C718.722 350.025 720.603 348.507 720.603 345.636C720.603 343.128 718.722 341.28 716.082 341.28H712.749V350.025ZM738.556 360.981C732.352 360.981 726.808 356.295 726.808 349.101C726.808 341.973 732.352 337.221 738.556 337.221C744.727 337.221 750.304 341.973 750.304 349.101C750.304 356.295 744.727 360.981 738.556 360.981ZM730.867 349.101C730.867 354.051 734.464 357.12 738.556 357.12C742.615 357.12 746.245 354.051 746.245 349.101C746.245 344.217 742.615 341.082 738.556 341.082C734.464 341.082 730.867 344.217 730.867 349.101ZM753.776 360.651V337.551H757.703V354.282L767.603 337.551H771.431V360.651H767.504V345.471L758.594 360.651H753.776ZM757.34 333.591V331.512H760.64V333.162H764.699V331.512H767.999V333.591L765.953 335.901H759.386L757.34 333.591ZM786.636 360.981C780.399 360.981 774.888 356.262 774.888 349.134C774.888 341.94 780.432 337.221 786.57 337.221C790.299 337.221 793.599 338.706 795.843 341.808L792.84 344.481C791.421 342.138 789.177 341.082 786.636 341.082C782.544 341.082 778.947 344.184 778.947 349.134C778.947 354.018 782.61 357.12 786.636 357.12C789.276 357.12 791.421 355.8 792.84 353.622L795.975 356.163C793.83 359.364 790.431 360.981 786.636 360.981ZM805.419 360.651V341.28H797.631V337.551H817.134V341.28H809.346V360.651H805.419ZM820.255 360.651V337.551H829C833.092 337.551 835.138 340.356 835.138 343.161C835.138 345.999 833.092 348.804 829 348.804H824.182V349.794H829.858C833.752 349.794 835.699 352.5 835.699 355.206C835.699 357.945 833.752 360.651 829.858 360.651H820.255ZM824.182 356.922H829.891C831.079 356.922 831.64 356.064 831.64 355.206C831.64 354.381 831.079 353.523 829.891 353.523H824.182V356.922ZM824.182 345.075H829.033C830.419 345.075 831.079 344.118 831.079 343.161C831.079 342.237 830.419 341.28 829.033 341.28H824.182V345.075ZM849.925 360.981C843.721 360.981 838.177 356.295 838.177 349.101C838.177 341.973 843.721 337.221 849.925 337.221C856.096 337.221 861.673 341.973 861.673 349.101C861.673 356.295 856.096 360.981 849.925 360.981ZM842.236 349.101C842.236 354.051 845.833 357.12 849.925 357.12C853.984 357.12 857.614 354.051 857.614 349.101C857.614 344.217 853.984 341.082 849.925 341.082C845.833 341.082 842.236 344.217 842.236 349.101Z" fill="white"/>
<path d="M332.694 303.898C318.358 303.898 308.246 294.81 304.918 282.906L318.486 277.53C320.534 285.466 325.91 288.922 333.206 288.922C339.222 288.922 344.982 285.21 344.982 277.402C344.982 269.466 338.454 265.754 331.798 265.754H321.174V251.29H332.694C339.862 251.29 346.006 247.322 346.006 238.874C346.006 230.81 339.606 226.714 332.95 226.714C324.502 226.714 319.638 231.45 317.078 239.898L303.382 233.754C307.35 221.722 316.182 211.738 332.438 211.738C350.486 211.738 361.75 223.13 361.75 238.106C361.75 247.066 357.654 254.49 351.382 258.842C357.014 263.194 360.726 269.978 360.726 278.042C360.726 292.89 349.59 303.898 332.694 303.898ZM377.717 302.618V213.018H434.421V227.482H392.949V249.882H425.845V264.346H392.949V288.154H434.421V302.618H377.717ZM514.254 213.018V302.618H499.022V227.482H480.718L474.062 275.738C471.886 291.994 465.23 302.618 448.462 302.618H442.702V288.154H447.438C454.862 288.154 457.678 283.418 458.83 275.098L467.406 213.018H514.254ZM532.207 302.618V213.018H588.911V227.482H547.439V249.882H580.335V264.346H547.439V288.154H588.911V302.618H532.207ZM652.616 302.618V264.346H621.128L612.424 302.618H597.192L605.896 264.346H597.192V249.882H609.224L617.672 213.018H632.904L624.456 249.882H652.616V213.018H667.848V302.618H652.616ZM726.91 303.898C702.846 303.898 681.342 285.722 681.342 257.818C681.342 230.17 702.846 211.738 726.91 211.738C750.846 211.738 772.478 230.17 772.478 257.818C772.478 285.722 750.846 303.898 726.91 303.898ZM697.086 257.818C697.086 277.018 711.038 288.922 726.91 288.922C742.654 288.922 756.734 277.018 756.734 257.818C756.734 238.874 742.654 226.714 726.91 226.714C711.038 226.714 697.086 238.874 697.086 257.818ZM785.942 302.618V213.018H801.174V277.914L839.574 213.018H854.422V302.618H839.19V243.738L804.63 302.618H785.942Z" fill="#7ED21A"/>
</svg>
