{
	"asset":{
		"generator":"Khronos glTF Blender I/O v4.0.44",
		"version":"2.0"
	},
	"scene":0,
	"scenes":[
		{
			"name":"Scene",
			"nodes":[
				5
			]
		}
	],
	"nodes":[
		{
			"mesh":0,
			"name":"Toilet"
		},
		{
			"mesh":1,
			"name":"ToiletFlushHandle",
			"translation":[
				-0.13924530148506165,
				0.6072179675102234,
				0.18565154075622559
			]
		},
		{
			"mesh":2,
			"name":"ToiletSeat",
			"translation":[
				0,
				0.37021327018737793,
				0.2237320840358734
			]
		},
		{
			"mesh":3,
			"name":"ToiletSeatCover",
			"rotation":[
				-0.6997556686401367,
				0,
				0,
				0.7143823504447937
			],
			"translation":[
				0,
				0.37021327018737793,
				0.2237320840358734
			]
		},
		{
			"mesh":4,
			"name":"ToiletSeatMount",
			"translation":[
				0,
				0.37021327018737793,
				0.2237320840358734
			]
		},
		{
			"children":[
				0,
				1,
				2,
				3,
				4
			],
			"name":"ToiletOrigin"
		}
	],
	"materials":[
		{
			"doubleSided":true,
			"name":"Toilet",
			"normalTexture":{
				"index":0
			},
			"pbrMetallicRoughness":{
				"baseColorTexture":{
					"index":1
				},
				"metallicRoughnessTexture":{
					"index":2
				}
			}
		}
	],
	"meshes":[
		{
			"name":"Toilet",
			"primitives":[
				{
					"attributes":{
						"POSITION":0,
						"NORMAL":1,
						"TEXCOORD_0":2
					},
					"indices":3,
					"material":0
				}
			]
		},
		{
			"name":"ToiletFlushHandle",
			"primitives":[
				{
					"attributes":{
						"POSITION":4,
						"NORMAL":5,
						"TEXCOORD_0":6
					},
					"indices":7,
					"material":0
				}
			]
		},
		{
			"name":"ToiletSeat",
			"primitives":[
				{
					"attributes":{
						"POSITION":8,
						"NORMAL":9,
						"TEXCOORD_0":10
					},
					"indices":11,
					"material":0
				}
			]
		},
		{
			"name":"ToiletSeatCover",
			"primitives":[
				{
					"attributes":{
						"POSITION":12,
						"NORMAL":13,
						"TEXCOORD_0":14
					},
					"indices":15,
					"material":0
				}
			]
		},
		{
			"name":"ToiletSeatMount",
			"primitives":[
				{
					"attributes":{
						"POSITION":16,
						"NORMAL":17,
						"TEXCOORD_0":18
					},
					"indices":19,
					"material":0
				}
			]
		}
	],
	"textures":[
		{
			"sampler":0,
			"source":0
		},
		{
			"sampler":0,
			"source":1
		},
		{
			"sampler":0,
			"source":2
		}
	],
	"images":[
		{
			"mimeType":"image/png",
			"name":"Toilet_NormalOGL16",
			"uri":"Toilet_NormalOGL16.png"
		},
		{
			"mimeType":"image/png",
			"name":"Toilet_BaseColor",
			"uri":"Toilet_BaseColor.png"
		},
		{
			"mimeType":"image/png",
			"name":"Toilet_Metallic-Toilet_Roughness",
			"uri":"Toilet_Metallic-Toilet_Roughness.png"
		}
	],
	"accessors":[
		{
			"bufferView":0,
			"componentType":5126,
			"count":5332,
			"max":[
				0.21129558980464935,
				0.6701891422271729,
				0.6045647859573364
			],
			"min":[
				-0.26705318689346313,
				-4.470348358154297e-08,
				-0.002395634539425373
			],
			"type":"VEC3"
		},
		{
			"bufferView":1,
			"componentType":5126,
			"count":5332,
			"type":"VEC3"
		},
		{
			"bufferView":2,
			"componentType":5126,
			"count":5332,
			"type":"VEC2"
		},
		{
			"bufferView":3,
			"componentType":5123,
			"count":24654,
			"type":"SCALAR"
		},
		{
			"bufferView":4,
			"componentType":5126,
			"count":156,
			"max":[
				0.015507183969020844,
				0.017342329025268555,
				0.017120301723480225
			],
			"min":[
				-0.07115070521831512,
				-0.017300844192504883,
				-0.0029183626174926758
			],
			"type":"VEC3"
		},
		{
			"bufferView":5,
			"componentType":5126,
			"count":156,
			"type":"VEC3"
		},
		{
			"bufferView":6,
			"componentType":5126,
			"count":156,
			"type":"VEC2"
		},
		{
			"bufferView":7,
			"componentType":5123,
			"count":690,
			"type":"SCALAR"
		},
		{
			"bufferView":8,
			"componentType":5126,
			"count":624,
			"max":[
				0.1762246936559677,
				0.010375350713729858,
				0.3783513605594635
			],
			"min":[
				-0.1762247234582901,
				-0.010432541370391846,
				-0.010081261396408081
			],
			"type":"VEC3"
		},
		{
			"bufferView":9,
			"componentType":5126,
			"count":624,
			"type":"VEC3"
		},
		{
			"bufferView":10,
			"componentType":5126,
			"count":624,
			"type":"VEC2"
		},
		{
			"bufferView":11,
			"componentType":5123,
			"count":2556,
			"type":"SCALAR"
		},
		{
			"bufferView":12,
			"componentType":5126,
			"count":579,
			"max":[
				0.17195644974708557,
				0.026378845795989037,
				0.37316346168518066
			],
			"min":[
				-0.17195649445056915,
				-0.0055070193484425545,
				-0.017020344734191895
			],
			"type":"VEC3"
		},
		{
			"bufferView":13,
			"componentType":5126,
			"count":579,
			"type":"VEC3"
		},
		{
			"bufferView":14,
			"componentType":5126,
			"count":579,
			"type":"VEC2"
		},
		{
			"bufferView":15,
			"componentType":5123,
			"count":2268,
			"type":"SCALAR"
		},
		{
			"bufferView":16,
			"componentType":5126,
			"count":468,
			"max":[
				0.11106473207473755,
				0.0055065155029296875,
				0.005506545305252075
			],
			"min":[
				-0.11106473207473755,
				-0.010995261371135712,
				-0.035917729139328
			],
			"type":"VEC3"
		},
		{
			"bufferView":17,
			"componentType":5126,
			"count":468,
			"type":"VEC3"
		},
		{
			"bufferView":18,
			"componentType":5126,
			"count":468,
			"type":"VEC2"
		},
		{
			"bufferView":19,
			"componentType":5123,
			"count":1308,
			"type":"SCALAR"
		}
	],
	"bufferViews":[
		{
			"buffer":0,
			"byteLength":63984,
			"byteOffset":0,
			"target":34962
		},
		{
			"buffer":0,
			"byteLength":63984,
			"byteOffset":63984,
			"target":34962
		},
		{
			"buffer":0,
			"byteLength":42656,
			"byteOffset":127968,
			"target":34962
		},
		{
			"buffer":0,
			"byteLength":49308,
			"byteOffset":170624,
			"target":34963
		},
		{
			"buffer":0,
			"byteLength":1872,
			"byteOffset":219932,
			"target":34962
		},
		{
			"buffer":0,
			"byteLength":1872,
			"byteOffset":221804,
			"target":34962
		},
		{
			"buffer":0,
			"byteLength":1248,
			"byteOffset":223676,
			"target":34962
		},
		{
			"buffer":0,
			"byteLength":1380,
			"byteOffset":224924,
			"target":34963
		},
		{
			"buffer":0,
			"byteLength":7488,
			"byteOffset":226304,
			"target":34962
		},
		{
			"buffer":0,
			"byteLength":7488,
			"byteOffset":233792,
			"target":34962
		},
		{
			"buffer":0,
			"byteLength":4992,
			"byteOffset":241280,
			"target":34962
		},
		{
			"buffer":0,
			"byteLength":5112,
			"byteOffset":246272,
			"target":34963
		},
		{
			"buffer":0,
			"byteLength":6948,
			"byteOffset":251384,
			"target":34962
		},
		{
			"buffer":0,
			"byteLength":6948,
			"byteOffset":258332,
			"target":34962
		},
		{
			"buffer":0,
			"byteLength":4632,
			"byteOffset":265280,
			"target":34962
		},
		{
			"buffer":0,
			"byteLength":4536,
			"byteOffset":269912,
			"target":34963
		},
		{
			"buffer":0,
			"byteLength":5616,
			"byteOffset":274448,
			"target":34962
		},
		{
			"buffer":0,
			"byteLength":5616,
			"byteOffset":280064,
			"target":34962
		},
		{
			"buffer":0,
			"byteLength":3744,
			"byteOffset":285680,
			"target":34962
		},
		{
			"buffer":0,
			"byteLength":2616,
			"byteOffset":289424,
			"target":34963
		}
	],
	"samplers":[
		{
			"magFilter":9729,
			"minFilter":9987
		}
	],
	"buffers":[
		{
			"byteLength":292040,
			"uri":"toi.bin"
		}
	]
}
