{
	"asset":{
		"generator":"Khronos glTF Blender I/O v4.0.44",
		"version":"2.0"
	},
	"extensionsUsed":[
		"KHR_materials_specular",
		"KHR_materials_ior"
	],
	"scene":0,
	"scenes":[
		{
			"name":"Scene",
			"nodes":[
				0,
				1,
				2
			]
		}
	],
	"nodes":[
		{
			"mesh":0,
			"name":"Circle",
			"rotation":[
				-0.70710688829422,
				0,
				0,
				0.7071066498756409
			]
		},
		{
			"mesh":1,
			"name":"Circle.001",
			"rotation":[
				-0.7071069478988647,
				0,
				0,
				0.7071066498756409
			],
			"scale":[
				0.8271664381027222,
				0.8271663784980774,
				0.8271663784980774
			],
			"translation":[
				0,
				0,
				0.0956173688173294
			]
		},
		{
			"mesh":2,
			"name":"Circle.002",
			"rotation":[
				-0.7071069478988647,
				0,
				0,
				0.7071066498756409
			],
			"scale":[
				0.8692179322242737,
				0.8692179322242737,
				0.8692179322242737
			]
		}
	],
	"animations":[
		{
			"channels":[
				{
					"sampler":0,
					"target":{
						"node":1,
						"path":"translation"
					}
				},
				{
					"sampler":1,
					"target":{
						"node":1,
						"path":"rotation"
					}
				},
				{
					"sampler":2,
					"target":{
						"node":1,
						"path":"scale"
					}
				}
			],
			"name":"Circle.001Action.002",
			"samplers":[
				{
					"input":16,
					"interpolation":"LINEAR",
					"output":17
				},
				{
					"input":18,
					"interpolation":"STEP",
					"output":19
				},
				{
					"input":18,
					"interpolation":"STEP",
					"output":20
				}
			]
		},
		{
			"channels":[
				{
					"sampler":0,
					"target":{
						"node":2,
						"path":"translation"
					}
				},
				{
					"sampler":1,
					"target":{
						"node":2,
						"path":"rotation"
					}
				},
				{
					"sampler":2,
					"target":{
						"node":2,
						"path":"scale"
					}
				}
			],
			"name":"Circle.002Action",
			"samplers":[
				{
					"input":21,
					"interpolation":"LINEAR",
					"output":22
				},
				{
					"input":21,
					"interpolation":"LINEAR",
					"output":23
				},
				{
					"input":21,
					"interpolation":"LINEAR",
					"output":24
				}
			]
		}
	],
	"materials":[
		{
			"doubleSided":true,
			"extensions":{
				"KHR_materials_specular":{
					"specularColorFactor":[
						2.3713576793670654,
						2.3713576793670654,
						2.3713576793670654
					]
				},
				"KHR_materials_ior":{
					"ior":1.4500000476837158
				}
			},
			"name":"Material.001",
			"pbrMetallicRoughness":{
				"baseColorFactor":[
					0.2697363793849945,
					0,
					0.001975586172193289,
					1
				],
				"metallicFactor":0.6972477436065674,
				"roughnessFactor":0.2889908254146576
			}
		},
		{
			"doubleSided":true,
			"name":"Material.002",
			"pbrMetallicRoughness":{
				"baseColorFactor":[
					0.800000011920929,
					0.800000011920929,
					0.800000011920929,
					1
				],
				"metallicFactor":0.7889907956123352,
				"roughnessFactor":0.20642200112342834
			}
		}
	],
	"meshes":[
		{
			"name":"Circle",
			"primitives":[
				{
					"attributes":{
						"POSITION":0,
						"NORMAL":1,
						"TEXCOORD_0":2
					},
					"indices":3,
					"material":0
				}
			]
		},
		{
			"name":"Circle.002",
			"primitives":[
				{
					"attributes":{
						"POSITION":4,
						"NORMAL":5,
						"TEXCOORD_0":6
					},
					"indices":7,
					"material":0
				},
				{
					"attributes":{
						"POSITION":8,
						"NORMAL":9,
						"TEXCOORD_0":10
					},
					"indices":11,
					"material":1
				}
			]
		},
		{
			"name":"Circle.003",
			"primitives":[
				{
					"attributes":{
						"POSITION":12,
						"NORMAL":13,
						"TEXCOORD_0":14
					},
					"indices":15,
					"material":0
				}
			]
		}
	],
	"accessors":[
		{
			"bufferView":0,
			"componentType":5126,
			"count":181624,
			"max":[
				0.9935950636863708,
				0.10850011557340622,
				0.9935950636863708
			],
			"min":[
				-0.9935950636863708,
				-0.13878695666790009,
				-0.9935950636863708
			],
			"type":"VEC3"
		},
		{
			"bufferView":1,
			"componentType":5126,
			"count":181624,
			"type":"VEC3"
		},
		{
			"bufferView":2,
			"componentType":5126,
			"count":181624,
			"type":"VEC2"
		},
		{
			"bufferView":3,
			"componentType":5125,
			"count":233472,
			"type":"SCALAR"
		},
		{
			"bufferView":4,
			"componentType":5126,
			"count":46640,
			"max":[
				0.9935951828956604,
				0,
				0.9935951828956604
			],
			"min":[
				-0.9935951828956604,
				-0.2286483347415924,
				-0.9935951828956604
			],
			"type":"VEC3"
		},
		{
			"bufferView":5,
			"componentType":5126,
			"count":46640,
			"type":"VEC3"
		},
		{
			"bufferView":6,
			"componentType":5126,
			"count":46640,
			"type":"VEC2"
		},
		{
			"bufferView":7,
			"componentType":5123,
			"count":234657,
			"type":"SCALAR"
		},
		{
			"bufferView":8,
			"componentType":5126,
			"count":30397,
			"max":[
				0.8406884074211121,
				-0.13846972584724426,
				0.8406884074211121
			],
			"min":[
				-0.8406884074211121,
				-0.246248260140419,
				-0.8406884074211121
			],
			"type":"VEC3"
		},
		{
			"bufferView":9,
			"componentType":5126,
			"count":30397,
			"type":"VEC3"
		},
		{
			"bufferView":10,
			"componentType":5126,
			"count":30397,
			"type":"VEC2"
		},
		{
			"bufferView":11,
			"componentType":5123,
			"count":175599,
			"type":"SCALAR"
		},
		{
			"bufferView":12,
			"componentType":5126,
			"count":32,
			"max":[
				1,
				0,
				1
			],
			"min":[
				-1,
				0,
				-1
			],
			"type":"VEC3"
		},
		{
			"bufferView":13,
			"componentType":5126,
			"count":32,
			"type":"VEC3"
		},
		{
			"bufferView":14,
			"componentType":5126,
			"count":32,
			"type":"VEC2"
		},
		{
			"bufferView":15,
			"componentType":5123,
			"count":90,
			"type":"SCALAR"
		},
		{
			"bufferView":16,
			"componentType":5126,
			"count":32,
			"max":[
				1.2916666666666667
			],
			"min":[
				0
			],
			"type":"SCALAR"
		},
		{
			"bufferView":17,
			"componentType":5126,
			"count":32,
			"type":"VEC3"
		},
		{
			"bufferView":18,
			"componentType":5126,
			"count":2,
			"max":[
				1.2916666666666667
			],
			"min":[
				0
			],
			"type":"SCALAR"
		},
		{
			"bufferView":19,
			"componentType":5126,
			"count":2,
			"type":"VEC4"
		},
		{
			"bufferView":20,
			"componentType":5126,
			"count":2,
			"type":"VEC3"
		},
		{
			"bufferView":21,
			"componentType":5126,
			"count":1,
			"max":[
				0
			],
			"min":[
				0
			],
			"type":"SCALAR"
		},
		{
			"bufferView":22,
			"componentType":5126,
			"count":1,
			"type":"VEC3"
		},
		{
			"bufferView":23,
			"componentType":5126,
			"count":1,
			"type":"VEC4"
		},
		{
			"bufferView":24,
			"componentType":5126,
			"count":1,
			"type":"VEC3"
		}
	],
	"bufferViews":[
		{
			"buffer":0,
			"byteLength":2179488,
			"byteOffset":0,
			"target":34962
		},
		{
			"buffer":0,
			"byteLength":2179488,
			"byteOffset":2179488,
			"target":34962
		},
		{
			"buffer":0,
			"byteLength":1452992,
			"byteOffset":4358976,
			"target":34962
		},
		{
			"buffer":0,
			"byteLength":933888,
			"byteOffset":5811968,
			"target":34963
		},
		{
			"buffer":0,
			"byteLength":559680,
			"byteOffset":6745856,
			"target":34962
		},
		{
			"buffer":0,
			"byteLength":559680,
			"byteOffset":7305536,
			"target":34962
		},
		{
			"buffer":0,
			"byteLength":373120,
			"byteOffset":7865216,
			"target":34962
		},
		{
			"buffer":0,
			"byteLength":469314,
			"byteOffset":8238336,
			"target":34963
		},
		{
			"buffer":0,
			"byteLength":364764,
			"byteOffset":8707652,
			"target":34962
		},
		{
			"buffer":0,
			"byteLength":364764,
			"byteOffset":9072416,
			"target":34962
		},
		{
			"buffer":0,
			"byteLength":243176,
			"byteOffset":9437180,
			"target":34962
		},
		{
			"buffer":0,
			"byteLength":351198,
			"byteOffset":9680356,
			"target":34963
		},
		{
			"buffer":0,
			"byteLength":384,
			"byteOffset":10031556,
			"target":34962
		},
		{
			"buffer":0,
			"byteLength":384,
			"byteOffset":10031940,
			"target":34962
		},
		{
			"buffer":0,
			"byteLength":256,
			"byteOffset":10032324,
			"target":34962
		},
		{
			"buffer":0,
			"byteLength":180,
			"byteOffset":10032580,
			"target":34963
		},
		{
			"buffer":0,
			"byteLength":128,
			"byteOffset":10032760
		},
		{
			"buffer":0,
			"byteLength":384,
			"byteOffset":10032888
		},
		{
			"buffer":0,
			"byteLength":8,
			"byteOffset":10033272
		},
		{
			"buffer":0,
			"byteLength":32,
			"byteOffset":10033280
		},
		{
			"buffer":0,
			"byteLength":24,
			"byteOffset":10033312
		},
		{
			"buffer":0,
			"byteLength":4,
			"byteOffset":10033336
		},
		{
			"buffer":0,
			"byteLength":12,
			"byteOffset":10033340
		},
		{
			"buffer":0,
			"byteLength":16,
			"byteOffset":10033352
		},
		{
			"buffer":0,
			"byteLength":12,
			"byteOffset":10033368
		}
	],
	"buffers":[
		{
			"byteLength":10033380,
			"uri":"knopka.bin"
		}
	]
}
