{
  "accessors": [
    {
      "bufferView": 0,
      "componentType": 5125,
      "count": 1044,
      "type": "SCALAR"
    },
    {
      "bufferView": 1,
      "componentType": 5126,
      "count": 674,
      "max": [
        2.207350730896,
        2.14995551109314,
        5.02169513702393
      ],
      "min": [
        -2.207350730896,
        -3.49224877357483,
        -0.327928781509399
      ],
      "type": "VEC3"
    },
    {
      "bufferView": 2,
      "componentType": 5126,
      "count": 674,
      "type": "VEC3"
    },
    {
      "bufferView": 3,
      "componentType": 5126,
      "count": 674,
      "type": "VEC4"
    },
    {
      "bufferView": 4,
      "componentType": 5126,
      "count": 674,
      "type": "VEC2"
    },
    {
      "bufferView": 5,
      "componentType": 5125,
      "count": 498,
      "type": "SCALAR"
    },
    {
      "bufferView": 6,
      "componentType": 5126,
      "count": 330,
      "max": [
        2.207350730896,
        2.14995551109314,
        5.02169513702393
      ],
      "min": [
        -2.02995538711548,
        -3.45879507064819,
        -0.327928781509399
      ],
      "type": "VEC3"
    },
    {
      "bufferView": 7,
      "componentType": 5126,
      "count": 330,
      "type": "VEC3"
    },
    {
      "bufferView": 8,
      "componentType": 5126,
      "count": 330,
      "type": "VEC4"
    },
    {
      "bufferView": 9,
      "componentType": 5126,
      "count": 330,
      "type": "VEC2"
    },
    {
      "bufferView": 10,
      "componentType": 5125,
      "count": 120,
      "type": "SCALAR"
    },
    {
      "bufferView": 11,
      "componentType": 5126,
      "count": 64,
      "max": [
        0.364202946424484,
        -2.02658748626709,
        4.02477741241455
      ],
      "min": [
        -0.364202946424484,
        -2.06882953643799,
        3.10577988624573
      ],
      "type": "VEC3"
    },
    {
      "bufferView": 12,
      "componentType": 5126,
      "count": 64,
      "type": "VEC3"
    },
    {
      "bufferView": 13,
      "componentType": 5126,
      "count": 64,
      "type": "VEC4"
    },
    {
      "bufferView": 14,
      "componentType": 5126,
      "count": 64,
      "type": "VEC2"
    },
    {
      "bufferView": 15,
      "componentType": 5125,
      "count": 108,
      "type": "SCALAR"
    },
    {
      "bufferView": 16,
      "componentType": 5126,
      "count": 70,
      "max": [
        0.33886656165123,
        -2.02795100212097,
        3.99944114685059
      ],
      "min": [
        -0.33886656165123,
        -2.03500461578369,
        3.13111615180969
      ],
      "type": "VEC3"
    },
    {
      "bufferView": 17,
      "componentType": 5126,
      "count": 70,
      "type": "VEC3"
    },
    {
      "bufferView": 18,
      "componentType": 5126,
      "count": 70,
      "type": "VEC4"
    },
    {
      "bufferView": 19,
      "componentType": 5126,
      "count": 70,
      "type": "VEC2"
    },
    {
      "bufferView": 20,
      "componentType": 5125,
      "count": 228,
      "type": "SCALAR"
    },
    {
      "bufferView": 21,
      "componentType": 5126,
      "count": 126,
      "max": [
        2.07024502754211,
        1.37795567512512,
        1.63741636276245
      ],
      "min": [
        2.02800297737122,
        0.649549543857574,
        0.718418478965759
      ],
      "type": "VEC3"
    },
    {
      "bufferView": 22,
      "componentType": 5126,
      "count": 126,
      "type": "VEC3"
    },
    {
      "bufferView": 23,
      "componentType": 5126,
      "count": 126,
      "type": "VEC4"
    },
    {
      "bufferView": 24,
      "componentType": 5126,
      "count": 126,
      "type": "VEC2"
    },
    {
      "bufferView": 25,
      "componentType": 5125,
      "count": 330,
      "type": "SCALAR"
    },
    {
      "bufferView": 26,
      "componentType": 5126,
      "count": 212,
      "max": [
        0.991334080696106,
        2.06660342216492,
        3.97019529342651
      ],
      "min": [
        -0.991334140300751,
        2.02937865257263,
        3.16036224365234
      ],
      "type": "VEC3"
    },
    {
      "bufferView": 27,
      "componentType": 5126,
      "count": 212,
      "type": "VEC3"
    },
    {
      "bufferView": 28,
      "componentType": 5126,
      "count": 212,
      "type": "VEC4"
    },
    {
      "bufferView": 29,
      "componentType": 5126,
      "count": 212,
      "type": "VEC2"
    },
    {
      "bufferView": 30,
      "componentType": 5125,
      "count": 126,
      "type": "SCALAR"
    },
    {
      "bufferView": 31,
      "componentType": 5126,
      "count": 82,
      "max": [
        0.96900737285614,
        2.03679633140564,
        3.94786834716797
      ],
      "min": [
        -0.96900749206543,
        2.0305802822113,
        3.18268895149231
      ],
      "type": "VEC3"
    },
    {
      "bufferView": 32,
      "componentType": 5126,
      "count": 82,
      "type": "VEC3"
    },
    {
      "bufferView": 33,
      "componentType": 5126,
      "count": 82,
      "type": "VEC4"
    },
    {
      "bufferView": 34,
      "componentType": 5126,
      "count": 82,
      "type": "VEC2"
    }
  ],
  "asset": {
    "generator": "Adobe Substance 3D Painter 9.1.2",
    "version": "2.0"
  },
  "bufferViews": [
    {
      "buffer": 0,
      "byteLength": 4176,
      "target": 34963
    },
    {
      "buffer": 0,
      "byteLength": 8088,
      "byteOffset": 4176,
      "target": 34962
    },
    {
      "buffer": 0,
      "byteLength": 8088,
      "byteOffset": 12264,
      "target": 34962
    },
    {
      "buffer": 0,
      "byteLength": 10784,
      "byteOffset": 20352,
      "target": 34962
    },
    {
      "buffer": 0,
      "byteLength": 5392,
      "byteOffset": 31136,
      "target": 34962
    },
    {
      "buffer": 0,
      "byteLength": 1992,
      "byteOffset": 36528,
      "target": 34963
    },
    {
      "buffer": 0,
      "byteLength": 3960,
      "byteOffset": 38520,
      "target": 34962
    },
    {
      "buffer": 0,
      "byteLength": 3960,
      "byteOffset": 42480,
      "target": 34962
    },
    {
      "buffer": 0,
      "byteLength": 5280,
      "byteOffset": 46440,
      "target": 34962
    },
    {
      "buffer": 0,
      "byteLength": 2640,
      "byteOffset": 51720,
      "target": 34962
    },
    {
      "buffer": 0,
      "byteLength": 480,
      "byteOffset": 54360,
      "target": 34963
    },
    {
      "buffer": 0,
      "byteLength": 768,
      "byteOffset": 54840,
      "target": 34962
    },
    {
      "buffer": 0,
      "byteLength": 768,
      "byteOffset": 55608,
      "target": 34962
    },
    {
      "buffer": 0,
      "byteLength": 1024,
      "byteOffset": 56376,
      "target": 34962
    },
    {
      "buffer": 0,
      "byteLength": 512,
      "byteOffset": 57400,
      "target": 34962
    },
    {
      "buffer": 0,
      "byteLength": 432,
      "byteOffset": 57912,
      "target": 34963
    },
    {
      "buffer": 0,
      "byteLength": 840,
      "byteOffset": 58344,
      "target": 34962
    },
    {
      "buffer": 0,
      "byteLength": 840,
      "byteOffset": 59184,
      "target": 34962
    },
    {
      "buffer": 0,
      "byteLength": 1120,
      "byteOffset": 60024,
      "target": 34962
    },
    {
      "buffer": 0,
      "byteLength": 560,
      "byteOffset": 61144,
      "target": 34962
    },
    {
      "buffer": 0,
      "byteLength": 912,
      "byteOffset": 61704,
      "target": 34963
    },
    {
      "buffer": 0,
      "byteLength": 1512,
      "byteOffset": 62616,
      "target": 34962
    },
    {
      "buffer": 0,
      "byteLength": 1512,
      "byteOffset": 64128,
      "target": 34962
    },
    {
      "buffer": 0,
      "byteLength": 2016,
      "byteOffset": 65640,
      "target": 34962
    },
    {
      "buffer": 0,
      "byteLength": 1008,
      "byteOffset": 67656,
      "target": 34962
    },
    {
      "buffer": 0,
      "byteLength": 1320,
      "byteOffset": 68664,
      "target": 34963
    },
    {
      "buffer": 0,
      "byteLength": 2544,
      "byteOffset": 69984,
      "target": 34962
    },
    {
      "buffer": 0,
      "byteLength": 2544,
      "byteOffset": 72528,
      "target": 34962
    },
    {
      "buffer": 0,
      "byteLength": 3392,
      "byteOffset": 75072,
      "target": 34962
    },
    {
      "buffer": 0,
      "byteLength": 1696,
      "byteOffset": 78464,
      "target": 34962
    },
    {
      "buffer": 0,
      "byteLength": 504,
      "byteOffset": 80160,
      "target": 34963
    },
    {
      "buffer": 0,
      "byteLength": 984,
      "byteOffset": 80664,
      "target": 34962
    },
    {
      "buffer": 0,
      "byteLength": 984,
      "byteOffset": 81648,
      "target": 34962
    },
    {
      "buffer": 0,
      "byteLength": 1312,
      "byteOffset": 82632,
      "target": 34962
    },
    {
      "buffer": 0,
      "byteLength": 656,
      "byteOffset": 83944,
      "target": 34962
    }
  ],
  "buffers": [
    {
      "byteLength": 84600,
      "uri": "House.bin"
    }
  ],
  "images": [
    {
      "uri": "DefaultMaterial_baseColor_1001.png"
    },
    {
      "uri": "DefaultMaterial_occlusionRoughnessMetallic_1001.png"
    },
    {
      "uri": "DefaultMaterial_normal_1001.png"
    },
    {
      "uri": "DefaultMaterial_baseColor_1002.png"
    },
    {
      "uri": "DefaultMaterial_occlusionRoughnessMetallic_1002.png"
    },
    {
      "uri": "DefaultMaterial_normal_1002.png"
    }
  ],
  "materials": [
    {
      "alphaMode": "OPAQUE",
      "name": "DefaultMaterial_1001",
      "normalTexture": {
        "index": 2
      },
      "occlusionTexture": {
        "index": 1
      },
      "pbrMetallicRoughness": {
        "baseColorTexture": {
          "index": 0
        },
        "metallicRoughnessTexture": {
          "index": 1
        }
      }
    },
    {
      "alphaMode": "OPAQUE",
      "name": "DefaultMaterial_1002",
      "normalTexture": {
        "index": 5
      },
      "occlusionTexture": {
        "index": 4
      },
      "pbrMetallicRoughness": {
        "baseColorTexture": {
          "index": 3
        },
        "metallicRoughnessTexture": {
          "index": 4
        }
      }
    }
  ],
  "meshes": [
    {
      "name": "base",
      "primitives": [
        {
          "attributes": {
            "NORMAL": 2,
            "POSITION": 1,
            "TANGENT": 3,
            "TEXCOORD_0": 4
          },
          "indices": 0,
          "material": 0,
          "mode": 4
        }
      ]
    },
    {
      "name": "base",
      "primitives": [
        {
          "attributes": {
            "NORMAL": 7,
            "POSITION": 6,
            "TANGENT": 8,
            "TEXCOORD_0": 9
          },
          "indices": 5,
          "material": 1,
          "mode": 4
        }
      ]
    },
    {
      "name": "window1",
      "primitives": [
        {
          "attributes": {
            "NORMAL": 12,
            "POSITION": 11,
            "TANGENT": 13,
            "TEXCOORD_0": 14
          },
          "indices": 10,
          "material": 0,
          "mode": 4
        }
      ]
    },
    {
      "name": "window1",
      "primitives": [
        {
          "attributes": {
            "NORMAL": 17,
            "POSITION": 16,
            "TANGENT": 18,
            "TEXCOORD_0": 19
          },
          "indices": 15,
          "material": 1,
          "mode": 4
        }
      ]
    },
    {
      "name": "window2",
      "primitives": [
        {
          "attributes": {
            "NORMAL": 22,
            "POSITION": 21,
            "TANGENT": 23,
            "TEXCOORD_0": 24
          },
          "indices": 20,
          "material": 1,
          "mode": 4
        }
      ]
    },
    {
      "name": "windows3",
      "primitives": [
        {
          "attributes": {
            "NORMAL": 27,
            "POSITION": 26,
            "TANGENT": 28,
            "TEXCOORD_0": 29
          },
          "indices": 25,
          "material": 1,
          "mode": 4
        }
      ]
    },
    {
      "name": "windows3",
      "primitives": [
        {
          "attributes": {
            "NORMAL": 32,
            "POSITION": 31,
            "TANGENT": 33,
            "TEXCOORD_0": 34
          },
          "indices": 30,
          "material": 0,
          "mode": 4
        }
      ]
    }
  ],
  "nodes": [
    {
      "children": [
        1,
        4,
        7,
        9
      ],
      "name": "RootNode",
      "scale": [
        0.00999999977648258,
        0.00999999977648258,
        0.00999999977648258
      ]
    },
    {
      "children": [
        2,
        3
      ],
      "name": "base",
      "rotation": [
        -0.707106828689575,
        0.0,
        0.0,
        0.707106709480286
      ],
      "scale": [
        100.0,
        100.0,
        100.0
      ]
    },
    {
      "mesh": 0,
      "name": "base"
    },
    {
      "mesh": 1,
      "name": "base"
    },
    {
      "children": [
        5,
        6
      ],
      "name": "window1",
      "rotation": [
        -0.707106828689575,
        0.0,
        0.0,
        0.707106709480286
      ],
      "scale": [
        100.0,
        100.0,
        100.0
      ],
      "translation": [
        0.0,
        0.0,
        0.274216890335083
      ]
    },
    {
      "mesh": 2,
      "name": "window1"
    },
    {
      "mesh": 3,
      "name": "window1"
    },
    {
      "children": [
        8
      ],
      "name": "window2",
      "rotation": [
        -0.707106828689575,
        0.0,
        0.0,
        0.707106709480286
      ],
      "scale": [
        100.0,
        100.0,
        100.0
      ],
      "translation": [
        0.182054460048676,
        0.0,
        0.0
      ]
    },
    {
      "mesh": 4,
      "name": "window2"
    },
    {
      "children": [
        10,
        11
      ],
      "name": "windows3",
      "rotation": [
        -0.707106828689575,
        0.0,
        0.0,
        0.707106709480286
      ],
      "scale": [
        100.0,
        100.0,
        100.0
      ]
    },
    {
      "mesh": 5,
      "name": "windows3"
    },
    {
      "mesh": 6,
      "name": "windows3"
    }
  ],
  "samplers": [
    {
      "magFilter": 9729,
      "minFilter": 9985,
      "wrapS": 10497,
      "wrapT": 10497
    }
  ],
  "scene": 0,
  "scenes": [
    {
      "name": "Scene",
      "nodes": [
        0
      ]
    }
  ],
  "textures": [
    {
      "sampler": 0,
      "source": 0
    },
    {
      "sampler": 0,
      "source": 1
    },
    {
      "sampler": 0,
      "source": 2
    },
    {
      "sampler": 0,
      "source": 3
    },
    {
      "sampler": 0,
      "source": 4
    },
    {
      "sampler": 0,
      "source": 5
    }
  ]
}