<svg width="102" height="42" viewBox="0 0 102 42" fill="none" xmlns="http://www.w3.org/2000/svg">
<path fill-rule="evenodd" clip-rule="evenodd" d="M25.041 0.46909L24.5457 0L24.2697 0.624461C22.8075 3.93157 22.1939 6.46914 22.6962 8.77925C23.1995 11.094 24.7989 13.071 27.4768 15.3197L27.9315 15.7014L28.211 15.1771C29.8037 12.1902 30.457 9.81526 29.9352 7.49386C29.4178 5.19245 27.7669 3.05122 25.041 0.46909ZM23.6377 8.57346C23.2322 6.70857 23.6451 4.58177 24.877 1.64999C27.2648 3.98278 28.5737 5.83153 28.9952 7.70629C29.413 9.5647 28.9777 11.5431 27.6385 14.1885C25.2999 12.1525 24.0451 10.447 23.6377 8.57346Z" fill="white"/>
<path d="M28.5142 28.8883L28.4917 28.8755L28.543 28.7855C28.5334 28.8209 28.5238 28.8562 28.5142 28.8883Z" fill="white"/>
<path fill-rule="evenodd" clip-rule="evenodd" d="M28.3201 18.0765H28.3438L27.8728 17.431C27.6356 17.1083 27.3883 16.7924 27.1274 16.49C25.5213 14.6011 23.1358 12.6647 19.8322 11.7271C18.4328 11.3092 16.9521 11.085 15.4171 11.085C14.1634 11.085 12.947 11.2345 11.7814 11.5164L11.612 11.547L11.6187 11.5572C4.94026 13.2558 0 19.3199 0 26.5425C0 35.0798 6.90213 42 15.4171 42C15.9152 42 16.4099 41.9762 16.8978 41.9287C18.0838 41.8165 19.229 41.5685 20.3201 41.2016C23.9524 39.982 26.9817 37.4409 28.8419 34.1489C29.3196 33.303 29.7195 32.4062 30.0346 31.4719C30.3023 30.6702 30.509 29.8378 30.6445 28.9817C30.7699 28.1868 30.8342 27.3714 30.8342 26.5425C30.8342 23.417 29.9092 20.509 28.3201 18.0765ZM19.5984 12.7225C22.3057 13.5446 24.6742 15.1413 26.4463 17.2578C26.47 17.2884 26.4937 17.3155 26.5174 17.3427C23.5018 17.8047 20.8961 17.8693 18.6903 17.1864C16.4777 16.5002 14.6175 15.0394 13.1435 12.3318C15.6238 11.9954 17.7653 12.1959 19.5984 12.7225ZM24.0575 38.0932C22.9131 38.956 21.6369 39.6515 20.2624 40.1437C20.0886 39.8802 19.9112 39.6231 19.7293 39.3712C21.2686 38.3393 22.6947 37.4597 24.0575 36.7182V38.0932ZM18.7291 39.6394C18.9267 39.9025 19.1186 40.1718 19.3064 40.4489C18.4123 40.7001 17.4825 40.8662 16.5266 40.9374C13.9472 37.3152 10.7582 34.8004 5.83113 32.1553C6.71691 31.9067 7.56422 31.6998 8.38526 31.5333L8.40343 31.5424C12.207 33.5715 14.9088 35.4263 17.0354 37.6397C17.6405 38.2731 18.2026 38.9361 18.7286 39.6388L18.7291 39.6394ZM4.50695 32.5483C9.60804 35.1958 12.8156 37.5943 15.3633 40.9807C9.81777 40.9604 5.00924 37.7938 2.62198 33.1697C3.27261 32.9437 3.89851 32.7366 4.50695 32.5483ZM1.18932 28.7915C1.38014 30.0159 1.72613 31.1894 2.20523 32.292L2.22576 32.285C2.97183 32.0248 3.68866 31.7881 4.38615 31.5749C5.79842 31.1384 7.11903 30.7967 8.38813 30.5476L8.43397 30.5386H8.43722C12.8624 29.6707 16.5996 29.9517 21.2143 31.339C22.1253 31.6117 23.0676 31.9259 24.0575 32.2839V27.684C24.0575 27.6262 24.0236 27.5719 23.9728 27.5413L15.6035 22.7478C14.6412 22.194 13.462 22.1804 12.4828 22.707L1.18932 28.7915ZM18.0445 37.3058C20.2413 35.7807 22.1859 34.6082 24.0575 33.7311V35.6228C22.5075 36.4398 20.8931 37.4272 19.1465 38.5998C18.7948 38.154 18.428 37.7235 18.0445 37.3058ZM23.8101 26.2741L22.4446 25.4927C22.3938 25.4622 22.3599 25.4078 22.3599 25.35V22.5031C22.3599 22.3707 22.5056 22.2891 22.6208 22.3571L23.9762 23.2064C24.0236 23.2404 24.0541 23.2947 24.0541 23.3525V26.1314C24.0541 26.2571 23.9186 26.3386 23.8067 26.2741H23.8101ZM29.2519 30.5648C29.1401 30.9419 29.0181 31.3156 28.8758 31.6791C28.4759 32.7357 27.9575 33.7311 27.3307 34.6517C26.6869 35.6064 25.9279 36.4795 25.074 37.2506V28.4585C25.074 28.3328 25.2095 28.2513 25.3214 28.3159L27.3374 29.4709L29.2282 30.5512L29.2824 30.4561L29.2823 30.4564C29.2721 30.4937 29.262 30.531 29.2519 30.5648ZM29.5941 29.087C29.567 29.2399 29.5399 29.3894 29.506 29.5389L28.8893 29.1822L25.3281 27.1438C25.1723 27.0555 25.074 26.8856 25.074 26.7056V23.3525C25.074 22.9414 24.8639 22.5609 24.5183 22.3435L23.163 21.4942C22.3735 20.9982 21.3468 21.5689 21.3468 22.5031V24.5755C21.3468 24.7012 21.2112 24.7827 21.0994 24.7182L16.1083 21.8611C14.8411 21.1341 13.2892 21.1137 12.0016 21.8101L1.06056 27.7043C1.03346 27.3205 1.01651 26.9332 1.01651 26.5425C1.01651 19.7208 5.73652 14.0032 12.0796 12.4948C13.6823 15.6101 15.8 17.3563 18.3887 18.1581C20.9571 18.9564 23.9321 18.8069 27.2188 18.2634C28.8554 20.6075 29.8177 23.4646 29.8177 26.5425C29.8177 27.4122 29.7398 28.2615 29.5941 29.087ZM17.3672 36.6011C19.5016 35.1128 21.4221 33.9356 23.2808 33.0319C22.6099 32.795 21.9624 32.5796 21.3326 32.3847L21.3554 32.4336C19.7142 33.2024 17.9882 34.1848 16.0726 35.4081C16.5254 35.7958 16.956 36.1924 17.3672 36.6011ZM20.0328 32.0038C18.5424 32.7568 16.9832 33.6725 15.2894 34.7637C13.7663 33.5585 12.0035 32.4262 9.9127 31.2645C13.3371 30.7598 16.41 31.0084 20.0328 32.0038Z" fill="white"/>
<path d="M97.452 24.2934C99.0403 23.9841 99.4955 23.363 99.6252 21.5507C97.9492 22.0079 97.4719 22.6084 97.452 24.2934Z" fill="white"/>
<path d="M44.0371 22.4366V11.6163H35.2185V22.4366H37.0531V13.363H42.2024V22.4366H44.0371Z" fill="white"/>
<path fill-rule="evenodd" clip-rule="evenodd" d="M45.6539 17.0265C45.6539 20.3962 48.244 22.5912 51.1424 22.5912C54.0254 22.5912 56.6309 20.3962 56.6309 17.0265C56.6309 13.6876 54.0254 11.4617 51.1424 11.4617C48.244 11.4617 45.6539 13.6876 45.6539 17.0265ZM51.1424 20.7826C49.2307 20.7826 47.5503 19.3451 47.5503 17.0265C47.5503 14.7387 49.2307 13.2703 51.1424 13.2703C53.0387 13.2703 54.7346 14.7387 54.7346 17.0265C54.7346 19.3451 53.0387 20.7826 51.1424 20.7826Z" fill="white"/>
<path fill-rule="evenodd" clip-rule="evenodd" d="M35.9223 41.6776C35.175 41.6776 34.5072 41.1117 34.5072 40.2429C34.5072 39.3821 35.175 38.8083 35.9223 38.8083C36.6655 38.8083 37.3373 39.3821 37.3373 40.2429C37.3373 41.1117 36.6655 41.6776 35.9223 41.6776ZM34.9961 40.2429C34.9961 40.8407 35.4294 41.2113 35.9223 41.2113C36.4111 41.2113 36.8484 40.8407 36.8484 40.2429C36.8484 39.6531 36.4111 39.2745 35.9223 39.2745C35.4294 39.2745 34.9961 39.6531 34.9961 40.2429Z" fill="white"/>
<path d="M38.5463 41.6776C38.1011 41.6776 37.7871 41.3946 37.6838 41.024L38.1051 40.8566C38.1687 41.1037 38.3357 41.2113 38.5622 41.2113C38.749 41.2113 38.9279 41.0957 38.9279 40.8526C38.9279 40.6056 38.7252 40.49 38.5185 40.49H38.1886V40.0397H38.5463C38.7689 40.0397 38.9597 39.9161 38.9597 39.6531C38.9597 39.4021 38.761 39.2745 38.5543 39.2745C38.2919 39.2745 38.1409 39.422 38.0614 39.685L37.6361 39.4937C37.7593 39.1191 38.0336 38.8083 38.5384 38.8083C39.0988 38.8083 39.4486 39.1629 39.4486 39.6292C39.4486 39.9082 39.3214 40.1393 39.1266 40.2748C39.3015 40.4103 39.4168 40.6215 39.4168 40.8726C39.4168 41.3348 39.071 41.6776 38.5463 41.6776Z" fill="white"/>
<path d="M39.9444 41.6377V38.8481H41.7052V39.2984H40.4174V39.9958H41.4389V40.4462H40.4174V41.1874H41.7052V41.6377H39.9444Z" fill="white"/>
<path d="M44.1842 38.8481V41.6377H43.7112V39.2984H43.1428L42.9361 40.8008C42.8686 41.3069 42.6619 41.6377 42.1412 41.6377H41.9623V41.1874H42.1094C42.3399 41.1874 42.4274 41.0399 42.4632 40.7809L42.7295 38.8481H44.1842Z" fill="white"/>
<path d="M44.7417 41.6377V38.8481H46.5025V39.2984H45.2147V39.9958H46.2362V40.4462H45.2147V41.1874H46.5025V41.6377H44.7417Z" fill="white"/>
<path d="M48.4807 41.6377V40.4462H47.5029L47.2326 41.6377H46.7597L47.0299 40.4462H46.7597V39.9958H47.1333L47.3956 38.8481H47.8686L47.6063 39.9958H48.4807V38.8481H48.9537V41.6377H48.4807Z" fill="white"/>
<path d="M49.5118 41.6377V38.8481H51.2726V39.2984H49.9848V39.9958H51.0063V40.4462H49.9848V41.1874H51.2726V41.6377H49.5118Z" fill="white"/>
<path d="M53.2508 41.6377V40.4462H52.2731L52.0028 41.6377H51.5298L51.8001 40.4462H51.5298V39.9958H51.9034L52.1657 38.8481H52.6387L52.3764 39.9958H53.2508V38.8481H53.7238V41.6377H53.2508Z" fill="white"/>
<path d="M54.282 41.6377V38.8481H54.755V40.8686L55.9474 38.8481H56.4085V41.6377H55.9355V39.8046L54.8623 41.6377H54.282Z" fill="white"/>
<path d="M56.964 41.6377V38.8481H58.7248V39.2984H57.437V39.9958H58.4585V40.4462H57.437V41.1874H58.7248V41.6377H56.964Z" fill="white"/>
<path d="M60.3911 41.6377V38.8481H60.8641V40.8686L62.0565 38.8481H62.5176V41.6377H62.0446V39.8046L60.9714 41.6377H60.3911Z" fill="white"/>
<path fill-rule="evenodd" clip-rule="evenodd" d="M64.3034 38.8481H65.4919V39.2984H64.7764V39.8444H65.2136C65.8297 39.8444 66.1954 40.207 66.1954 40.7411C66.1954 41.2312 65.8297 41.6377 65.2136 41.6377H64.3034V38.8481ZM64.7764 41.1874H65.2176C65.5078 41.1874 65.7065 41.0041 65.7065 40.7411C65.7065 40.4342 65.5078 40.2947 65.2176 40.2947H64.7764V41.1874Z" fill="white"/>
<path d="M68.6558 38.8481V41.6377H68.1828V39.2984H67.6144L67.4077 40.8008C67.3402 41.3069 67.1335 41.6377 66.6128 41.6377H66.4339V41.1874H66.581C66.8115 41.1874 66.899 41.0399 66.9347 40.7809L67.201 38.8481H68.6558Z" fill="white"/>
<path fill-rule="evenodd" clip-rule="evenodd" d="M68.9947 41.6377L69.8135 38.8481H70.366L71.2523 41.6377H70.7595L70.6561 41.2751H69.575L69.4796 41.6377H68.9947ZM69.6942 40.8247H70.5249L70.0917 39.3223L69.6942 40.8247Z" fill="white"/>
<path d="M71.5887 38.8481H72.7771V39.2984H72.0616V41.6377H71.5887V38.8481Z" fill="white"/>
<path fill-rule="evenodd" clip-rule="evenodd" d="M74.254 41.6776C73.5067 41.6776 72.839 41.1117 72.839 40.2429C72.839 39.3821 73.5067 38.8083 74.254 38.8083C74.9973 38.8083 75.669 39.3821 75.669 40.2429C75.669 41.1117 74.9973 41.6776 74.254 41.6776ZM73.3279 40.2429C73.3279 40.8407 73.7611 41.2113 74.254 41.2113C74.7429 41.2113 75.1801 40.8407 75.1801 40.2429C75.1801 39.6531 74.7429 39.2745 74.254 39.2745C73.7611 39.2745 73.3279 39.6531 73.3279 40.2429Z" fill="white"/>
<path d="M76.1546 41.6377V41.1874H76.5442L76.8343 40.5936L75.9082 38.8481H76.409L77.0688 40.1154L77.6929 38.8481H78.1659L76.8065 41.6377H76.1546Z" fill="white"/>
<path d="M79.5404 41.6776C78.7891 41.6776 78.1254 41.1077 78.1254 40.2469C78.1254 39.3781 78.7931 38.8083 79.5324 38.8083C79.9816 38.8083 80.379 38.9876 80.6493 39.3622L80.2876 39.685C80.1167 39.4021 79.8464 39.2745 79.5404 39.2745C79.0475 39.2745 78.6143 39.6491 78.6143 40.2469C78.6143 40.8367 79.0555 41.2113 79.5404 41.2113C79.8583 41.2113 80.1167 41.0519 80.2876 40.7889L80.6652 41.0957C80.4069 41.4823 79.9975 41.6776 79.5404 41.6776Z" fill="white"/>
<path d="M81.8027 41.6377V39.2984H80.8647V38.8481H83.2137V39.2984H82.2757V41.6377H81.8027Z" fill="white"/>
<path fill-rule="evenodd" clip-rule="evenodd" d="M83.5897 41.6377V38.8481H84.4601C85.104 38.8481 85.4976 39.2945 85.4976 39.8245C85.4976 40.3983 85.104 40.8048 84.4601 40.8048H84.0627V41.6377H83.5897ZM84.0627 40.3545H84.4641C84.7821 40.3545 85.0087 40.1712 85.0087 39.8245C85.0087 39.5216 84.7821 39.2984 84.4641 39.2984H84.0627V40.3545Z" fill="white"/>
<path fill-rule="evenodd" clip-rule="evenodd" d="M87.1711 41.6776C86.4238 41.6776 85.7561 41.1117 85.7561 40.2429C85.7561 39.3821 86.4238 38.8083 87.1711 38.8083C87.9143 38.8083 88.5861 39.3821 88.5861 40.2429C88.5861 41.1117 87.9143 41.6776 87.1711 41.6776ZM86.245 40.2429C86.245 40.8407 86.6782 41.2113 87.1711 41.2113C87.66 41.2113 88.0972 40.8407 88.0972 40.2429C88.0972 39.6531 87.66 39.2745 87.1711 39.2745C86.6782 39.2745 86.245 39.6531 86.245 40.2429Z" fill="white"/>
<path d="M89.0042 41.6377V38.8481H89.4772V40.8686L90.6696 38.8481H91.1306V41.6377H90.6577V39.8046L89.5845 41.6377H89.0042Z" fill="white"/>
<path d="M89.4334 38.3699V38.1188H89.8309V38.3181H90.3198V38.1188H90.7173V38.3699L90.4708 38.6489H89.6799L89.4334 38.3699Z" fill="white"/>
<path d="M92.9621 41.6776C92.2108 41.6776 91.5471 41.1077 91.5471 40.2469C91.5471 39.3781 92.2148 38.8083 92.9541 38.8083C93.4033 38.8083 93.8007 38.9876 94.071 39.3622L93.7093 39.685C93.5384 39.4021 93.2681 39.2745 92.9621 39.2745C92.4692 39.2745 92.0359 39.6491 92.0359 40.2469C92.0359 40.8367 92.4771 41.2113 92.9621 41.2113C93.28 41.2113 93.5384 41.0519 93.7093 40.7889L94.0869 41.0957C93.8285 41.4823 93.4192 41.6776 92.9621 41.6776Z" fill="white"/>
<path d="M95.2244 41.6377V39.2984H94.2864V38.8481H96.6354V39.2984H95.6974V41.6377H95.2244Z" fill="white"/>
<path fill-rule="evenodd" clip-rule="evenodd" d="M97.0114 41.6377V38.8481H98.0647C98.5575 38.8481 98.804 39.1869 98.804 39.5256C98.804 39.8683 98.5575 40.207 98.0647 40.207H97.4844V40.3266H98.168C98.637 40.3266 98.8715 40.6534 98.8715 40.9802C98.8715 41.3109 98.637 41.6377 98.168 41.6377H97.0114ZM97.4844 41.1874H98.172C98.3151 41.1874 98.3827 41.0838 98.3827 40.9802C98.3827 40.8805 98.3151 40.7769 98.172 40.7769H97.4844V41.1874ZM97.4844 39.7567H98.0686C98.2356 39.7567 98.3151 39.6412 98.3151 39.5256C98.3151 39.414 98.2356 39.2984 98.0686 39.2984H97.4844V39.7567Z" fill="white"/>
<path fill-rule="evenodd" clip-rule="evenodd" d="M100.585 41.6776C99.8377 41.6776 99.17 41.1117 99.17 40.2429C99.17 39.3821 99.8377 38.8083 100.585 38.8083C101.328 38.8083 102 39.3821 102 40.2429C102 41.1117 101.328 41.6776 100.585 41.6776ZM99.6589 40.2429C99.6589 40.8407 100.092 41.2113 100.585 41.2113C101.074 41.2113 101.511 40.8407 101.511 40.2429C101.511 39.6531 101.074 39.2745 100.585 39.2745C100.092 39.2745 99.6589 39.6531 99.6589 40.2429Z" fill="white"/>
<path d="M34.941 33.2192C35.3418 34.6567 36.5598 35.7542 38.2865 35.7542C40.3216 35.7542 41.6628 34.4249 41.6628 32.6318C41.6628 31.658 41.2157 30.8387 40.5374 30.3132C41.2928 29.7876 41.7862 28.8911 41.7862 27.809C41.7862 26.0005 40.4295 24.6248 38.2557 24.6248C36.2977 24.6248 35.2339 25.8305 34.756 27.2835L36.4056 28.0254C36.7139 27.0052 37.2998 26.4333 38.3173 26.4333C39.119 26.4333 39.8899 26.928 39.8899 27.9018C39.8899 28.922 39.1498 29.4012 38.2865 29.4012H36.8989V31.1479H38.1786C38.9803 31.1479 39.7665 31.5961 39.7665 32.5545C39.7665 33.4974 39.0728 33.9457 38.3482 33.9457C37.4694 33.9457 36.8219 33.5283 36.5752 32.57L34.941 33.2192Z" fill="white"/>
<path d="M43.7093 24.7794V35.5996H50.5391V33.8529H45.544V30.9778H49.5062V29.2311H45.544V26.5261H50.5391V24.7794H43.7093Z" fill="white"/>
<path d="M60.1547 35.5996V24.7794H54.512L53.4791 32.2763C53.3403 33.281 53.0012 33.8529 52.107 33.8529H51.5365V35.5996H52.2303C54.25 35.5996 55.0516 34.3167 55.3137 32.3535L56.1154 26.5261H58.3201V35.5996H60.1547Z" fill="white"/>
<path d="M62.3171 24.7794V35.5996H69.1469V33.8529H64.1517V30.9778H68.1139V29.2311H64.1517V26.5261H69.1469V24.7794H62.3171Z" fill="white"/>
<path d="M76.8199 30.9778V35.5996H78.6545V24.7794H76.8199V29.2311H73.4281L74.4457 24.7794H72.611L71.5935 29.2311H70.1443V30.9778H71.1926L70.1443 35.5996H71.9789L73.0273 30.9778H76.8199Z" fill="white"/>
<path fill-rule="evenodd" clip-rule="evenodd" d="M80.2798 30.1895C80.2798 33.5592 82.8699 35.7542 85.7683 35.7542C88.6513 35.7542 91.2568 33.5592 91.2568 30.1895C91.2568 26.8507 88.6513 24.6248 85.7683 24.6248C82.8699 24.6248 80.2798 26.8507 80.2798 30.1895ZM85.7683 33.9457C83.8566 33.9457 82.1761 32.5081 82.1761 30.1895C82.1761 27.9018 83.8566 26.4333 85.7683 26.4333C87.6646 26.4333 89.3605 27.9018 89.3605 30.1895C89.3605 32.5081 87.6646 33.9457 85.7683 33.9457Z" fill="white"/>
<path d="M92.8785 24.7794V35.5996H95.1294L99.292 28.4892V35.5996H101.127V24.7794H99.3383L94.7132 32.6163V24.7794H92.8785Z" fill="white"/>
</svg>
