<svg width="98" height="126" viewBox="0 0 98 126" fill="none" xmlns="http://www.w3.org/2000/svg">
<path d="M48.5294 125.098C72.7941 100.159 97.0588 77.8276 97.0588 50.2814C97.0588 22.7349 75.3315 0.404053 48.5294 0.404053C21.7274 0.404053 0 22.7349 0 50.2814C0 77.8276 24.2647 100.159 48.5294 125.098Z" fill="#007FFF"/>
<ellipse cx="48.5295" cy="51.6206" rx="38.2353" ry="38.9706" fill="white"/>
<path d="M42.6146 24.8538C43.0258 26.8668 42.5192 28.8257 41.0664 30.6834C39.399 32.816 36.4205 34.7642 32.1463 36.0602C28.482 37.1712 26.0044 39.1277 24.6788 41.4106C23.3529 43.6935 23.2042 46.2806 24.0772 48.5007C25.6363 52.4652 30.4298 55.1098 36.833 53.4836C38.188 53.0579 39.7222 52.4332 40.9318 51.6782C41.1957 51.5135 41.4396 51.3442 41.6615 51.1726C41.358 50.889 41.0904 50.5578 40.8726 50.1814C40.8008 50.0572 40.7362 49.9308 40.6787 49.8039C39.3064 50.6491 37.5504 51.5089 35.2587 51.8391C30.2172 52.7806 27.0026 50.5776 25.9045 47.7852C25.2464 46.1119 25.3393 44.1837 26.3778 42.3954C27.4163 40.6071 29.4281 38.9354 32.7179 37.9378C37.2702 36.5576 40.611 34.4536 42.6145 31.8915C44.2731 29.7703 44.9704 27.3011 44.603 24.8539L42.6146 24.8538ZM44.4914 40.7641C44.4085 40.7641 44.3243 40.7641 44.2415 40.7672C43.0357 40.8108 41.8192 41.1435 40.7016 41.7882C37.9225 43.3903 36.5886 46.4272 37.0993 49.3773C38.3835 48.9263 39.4234 48.2981 40.3499 47.6802C40.4991 46.5165 41.184 45.446 42.3188 44.7916C42.9853 44.4071 43.7161 44.2177 44.4354 44.2139C45.8085 44.2065 47.1351 44.876 47.8701 46.1472C48.99 48.0842 48.2977 50.6612 46.3581 51.7799C45.4574 52.2993 44.4529 52.409 43.5215 52.1836C43.0559 52.6122 42.5259 52.9974 41.9733 53.3422C41.4174 53.6895 40.825 54.0029 40.2216 54.2844C41.8171 55.4062 43.7945 55.8779 45.7171 55.558H45.7203L53.3325 68.7306C55.1489 71.872 57.8057 73.7942 60.5669 74.4518C63.3278 75.1093 66.114 74.5736 68.3763 73.1881C72.901 70.4172 75.3558 63.9956 71.9029 58.023L70.1643 55.0131L70.1478 54.9837C68.0848 51.1989 65.4101 48.6284 62.2234 47.076C63.5673 51.899 64.0534 56.722 63.9161 61.5452L66.9334 57.9738L67.4494 57.6587L68.5538 59.5661C70.8629 63.5602 68.9317 67.2041 66.332 68.7963C62.5767 70.5334 59.7514 70.0587 57.4314 66.3673L49.8818 53.3029C52.0611 50.9474 52.5848 47.3102 50.9104 44.414C49.5431 42.0488 47.0571 40.7551 44.4915 40.7639L44.4914 40.7641Z" fill="#2E2A29"/>
</svg>
