<svg width="48" height="26" viewBox="0 0 48 26" fill="none" xmlns="http://www.w3.org/2000/svg">
<path d="M19 0H10V26H19V0Z" fill="white"/>
<path d="M38.4986 24.7133L29 15.3945L32.1677 12.2869C32.5835 11.8789 33.0771 11.5553 33.6205 11.3345C34.1638 11.1137 34.7461 11 35.3342 11C35.9223 11 36.5047 11.1137 37.048 11.3345C37.5913 11.5553 38.085 11.8789 38.5008 12.2869L48 21.6069L44.8345 24.7128C43.9943 25.5369 42.8548 25.9999 41.6667 26C40.4786 26.0001 39.339 25.5373 38.4986 24.7133Z" fill="white"/>
<path d="M9 0V26H0V4.33377C0.000435418 3.18424 0.474906 2.08193 1.31908 1.26924C2.16326 0.456542 3.30802 -7.64835e-08 4.50164 0L9 0Z" fill="white"/>
<path d="M30 0V21.6662C30.0002 22.2353 29.884 22.7988 29.6579 23.3246C29.4319 23.8504 29.1004 24.3281 28.6826 24.7306C28.2647 25.133 27.7685 25.4523 27.2225 25.6701C26.6764 25.8879 26.0911 26 25.5 26H21V0H30Z" fill="white"/>
<path d="M43.5 9C45.9853 9 48 6.98528 48 4.5C48 2.01472 45.9853 0 43.5 0C41.0147 0 39 2.01472 39 4.5C39 6.98528 41.0147 9 43.5 9Z" fill="white"/>
</svg>
