<svg width="97" height="125" viewBox="0 0 97 125" fill="none" xmlns="http://www.w3.org/2000/svg">
<path d="M48.5 124.618C72.75 99.6944 97 77.3767 97 49.8472C97 22.3173 75.2859 0 48.5 0C21.7142 0 0 22.3173 0 49.8472C0 77.3767 24.25 99.6944 48.5 124.618Z" fill="#F01010"/>
<ellipse cx="48.5" cy="50.5899" rx="38.2121" ry="38.947" fill="white"/>
<path d="M42.5889 24.4349C42.9999 26.4468 42.4935 28.4045 41.0416 30.2611C39.3752 32.3923 36.3985 34.3394 32.1269 35.6346C28.4648 36.7449 25.9888 38.7002 24.6639 40.9817C23.3389 43.2633 23.1902 45.8488 24.0627 48.0676C25.6209 52.0297 30.4115 54.6726 36.8108 53.0474C38.165 52.622 39.6982 51.9977 40.907 51.2431C41.1709 51.0785 41.4145 50.9093 41.6363 50.7379C41.3331 50.4544 41.0656 50.1234 40.848 49.7472C40.7762 49.6231 40.7116 49.4968 40.6541 49.3699C39.2826 50.2147 37.5278 51.0739 35.2375 51.4039C30.199 52.3448 26.9864 50.1432 25.8889 47.3525C25.2312 45.6802 25.324 43.7532 26.3619 41.966C27.3998 40.1788 29.4104 38.5081 32.6981 37.511C37.2477 36.1316 40.5865 34.029 42.5888 31.4684C44.2464 29.3485 44.9433 26.8808 44.576 24.435L42.5889 24.4349ZM44.4645 40.3356C44.3817 40.3356 44.2976 40.3356 44.2148 40.3387C43.0097 40.3823 41.794 40.7148 40.6771 41.3591C37.8997 42.9602 36.5665 45.9953 37.0769 48.9436C38.3604 48.4928 39.3996 47.8651 40.3256 47.2475C40.4746 46.0846 41.1591 45.0147 42.2933 44.3607C42.9594 43.9765 43.6897 43.7871 44.4086 43.7833C45.7808 43.776 47.1066 44.4451 47.8412 45.7155C48.9604 47.6512 48.2685 50.2267 46.3302 51.3447C45.43 51.8638 44.426 51.9735 43.4953 51.7482C43.0299 52.1765 42.5002 52.5615 41.948 52.9061C41.3924 53.2532 40.8004 53.5664 40.1973 53.8478C41.7919 54.9689 43.768 55.4402 45.6895 55.1206H45.6926L53.3003 68.2852C55.1156 71.4247 57.7708 73.3457 60.5303 74.0029C63.2895 74.66 66.074 74.1246 68.335 72.74C72.8569 69.9708 75.3103 63.5531 71.8594 57.584L70.1219 54.576L70.1054 54.5466C68.0436 50.7641 65.3706 48.1951 62.1857 46.6437C63.5289 51.4638 64.0147 56.2838 63.8774 61.1041L66.8929 57.5349L67.4086 57.22L68.5124 59.1262C70.82 63.1179 68.8901 66.7597 66.2919 68.3509C62.5389 70.0869 59.7153 69.6125 57.3967 65.9233L49.8517 52.8669C52.0296 50.5128 52.5531 46.8778 50.8797 43.9833C49.5132 41.6196 47.0286 40.3267 44.4646 40.3354L44.4645 40.3356Z" fill="#2E2A29"/>
</svg>
