{
	"asset":{
		"generator":"Khronos glTF Blender I/O v4.0.44",
		"version":"2.0"
	},
	"scene":0,
	"scenes":[
		{
			"name":"Scene",
			"nodes":[
				0
			]
		}
	],
	"nodes":[
		{
			"mesh":0,
			"name":"Circle.013",
			"rotation":[
				-0.7018059492111206,
				0.21739718317985535,
				0.053952135145664215,
				0.6762367486953735
			],
			"scale":[
				0.29639357328414917,
				0.29639360308647156,
				0.29639360308647156
			],
			"translation":[
				-0.6975693702697754,
				2.974905252456665,
				-1.7602285146713257
			]
		}
	],
	"materials":[
		{
			"doubleSided":true,
			"emissiveFactor":[
				0.8000006675720215,
				0.8000006675720215,
				0.8000006675720215
			],
			"emissiveTexture":{
				"index":0
			},
			"name":"\u0411\u0443\u0431\u043b\u0435\u0432\u0438\u0447.001",
			"pbrMetallicRoughness":{
				"metallicFactor":0,
				"roughnessFactor":0.5
			}
		},
		{
			"doubleSided":true,
			"name":"\u0413\u043b\u0430\u0437\u0430.001",
			"pbrMetallicRoughness":{
				"baseColorTexture":{
					"index":1
				},
				"metallicFactor":0,
				"metallicRoughnessTexture":{
					"index":2
				}
			}
		},
		{
			"doubleSided":true,
			"name":"\u041e\u0441\u043d\u043e\u0432\u0430.001",
			"normalTexture":{
				"index":3
			},
			"pbrMetallicRoughness":{
				"baseColorTexture":{
					"index":4
				},
				"metallicFactor":0,
				"metallicRoughnessTexture":{
					"index":5
				}
			}
		},
		{
			"doubleSided":true,
			"name":"\u0428\u043b\u044f\u043f\u0430.001",
			"normalTexture":{
				"index":6
			},
			"pbrMetallicRoughness":{
				"baseColorTexture":{
					"index":7
				},
				"metallicFactor":0,
				"metallicRoughnessTexture":{
					"index":8
				}
			}
		}
	],
	"meshes":[
		{
			"name":"Circle.013",
			"primitives":[
				{
					"attributes":{
						"POSITION":0,
						"NORMAL":1,
						"TEXCOORD_0":2
					},
					"indices":3,
					"material":0
				},
				{
					"attributes":{
						"POSITION":4,
						"NORMAL":5,
						"TEXCOORD_0":6
					},
					"indices":7,
					"material":1
				},
				{
					"attributes":{
						"POSITION":8,
						"NORMAL":9,
						"TEXCOORD_0":10
					},
					"indices":11,
					"material":2
				},
				{
					"attributes":{
						"POSITION":12,
						"NORMAL":13,
						"TEXCOORD_0":14
					},
					"indices":15,
					"material":3
				}
			]
		}
	],
	"textures":[
		{
			"sampler":0,
			"source":0
		},
		{
			"sampler":0,
			"source":1
		},
		{
			"sampler":0,
			"source":2
		},
		{
			"sampler":0,
			"source":3
		},
		{
			"sampler":0,
			"source":1
		},
		{
			"sampler":0,
			"source":2
		},
		{
			"sampler":0,
			"source":3
		},
		{
			"sampler":0,
			"source":1
		},
		{
			"sampler":0,
			"source":2
		}
	],
	"images":[
		{
			"mimeType":"image/png",
			"name":"Emit",
			"uri":"Emit.png"
		},
		{
			"mimeType":"image/png",
			"name":"Base_color",
			"uri":"Base_color.png"
		},
		{
			"mimeType":"image/png",
			"name":"Rough",
			"uri":"Rough.png"
		},
		{
			"mimeType":"image/png",
			"name":"Norrrrm",
			"uri":"Norrrrm.png"
		}
	],
	"accessors":[
		{
			"bufferView":0,
			"componentType":5126,
			"count":33436,
			"max":[
				6.44139289855957,
				0.3108542263507843,
				6.64104700088501
			],
			"min":[
				-6.582008361816406,
				-12.4995698928833,
				-0.9684532284736633
			],
			"type":"VEC3"
		},
		{
			"bufferView":1,
			"componentType":5126,
			"count":33436,
			"type":"VEC3"
		},
		{
			"bufferView":2,
			"componentType":5126,
			"count":33436,
			"type":"VEC2"
		},
		{
			"bufferView":3,
			"componentType":5123,
			"count":159744,
			"type":"SCALAR"
		},
		{
			"bufferView":4,
			"componentType":5126,
			"count":1028,
			"max":[
				0.9266436696052551,
				-7.466691493988037,
				-0.6188139915466309
			],
			"min":[
				-2.0906271934509277,
				-9.359598159790039,
				-2.166196823120117
			],
			"type":"VEC3"
		},
		{
			"bufferView":5,
			"componentType":5126,
			"count":1028,
			"type":"VEC3"
		},
		{
			"bufferView":6,
			"componentType":5126,
			"count":1028,
			"type":"VEC2"
		},
		{
			"bufferView":7,
			"componentType":5123,
			"count":5760,
			"type":"SCALAR"
		},
		{
			"bufferView":8,
			"componentType":5126,
			"count":32746,
			"max":[
				3.281987428665161,
				-3.5477406978607178,
				0.6665592193603516
			],
			"min":[
				-2.3641715049743652,
				-9.259282112121582,
				-7.8326897621154785
			],
			"type":"VEC3"
		},
		{
			"bufferView":9,
			"componentType":5126,
			"count":32746,
			"type":"VEC3"
		},
		{
			"bufferView":10,
			"componentType":5126,
			"count":32746,
			"type":"VEC2"
		},
		{
			"bufferView":11,
			"componentType":5123,
			"count":187632,
			"type":"SCALAR"
		},
		{
			"bufferView":12,
			"componentType":5126,
			"count":1388,
			"max":[
				6.44948148727417,
				0.2650642395019531,
				6.609800815582275
			],
			"min":[
				-6.612591743469238,
				-12.643207550048828,
				-3.7831926345825195
			],
			"type":"VEC3"
		},
		{
			"bufferView":13,
			"componentType":5126,
			"count":1388,
			"type":"VEC3"
		},
		{
			"bufferView":14,
			"componentType":5126,
			"count":1388,
			"type":"VEC2"
		},
		{
			"bufferView":15,
			"componentType":5123,
			"count":6912,
			"type":"SCALAR"
		}
	],
	"bufferViews":[
		{
			"buffer":0,
			"byteLength":401232,
			"byteOffset":0,
			"target":34962
		},
		{
			"buffer":0,
			"byteLength":401232,
			"byteOffset":401232,
			"target":34962
		},
		{
			"buffer":0,
			"byteLength":267488,
			"byteOffset":802464,
			"target":34962
		},
		{
			"buffer":0,
			"byteLength":319488,
			"byteOffset":1069952,
			"target":34963
		},
		{
			"buffer":0,
			"byteLength":12336,
			"byteOffset":1389440,
			"target":34962
		},
		{
			"buffer":0,
			"byteLength":12336,
			"byteOffset":1401776,
			"target":34962
		},
		{
			"buffer":0,
			"byteLength":8224,
			"byteOffset":1414112,
			"target":34962
		},
		{
			"buffer":0,
			"byteLength":11520,
			"byteOffset":1422336,
			"target":34963
		},
		{
			"buffer":0,
			"byteLength":392952,
			"byteOffset":1433856,
			"target":34962
		},
		{
			"buffer":0,
			"byteLength":392952,
			"byteOffset":1826808,
			"target":34962
		},
		{
			"buffer":0,
			"byteLength":261968,
			"byteOffset":2219760,
			"target":34962
		},
		{
			"buffer":0,
			"byteLength":375264,
			"byteOffset":2481728,
			"target":34963
		},
		{
			"buffer":0,
			"byteLength":16656,
			"byteOffset":2856992,
			"target":34962
		},
		{
			"buffer":0,
			"byteLength":16656,
			"byteOffset":2873648,
			"target":34962
		},
		{
			"buffer":0,
			"byteLength":11104,
			"byteOffset":2890304,
			"target":34962
		},
		{
			"buffer":0,
			"byteLength":13824,
			"byteOffset":2901408,
			"target":34963
		}
	],
	"samplers":[
		{
			"magFilter":9729,
			"minFilter":9987
		}
	],
	"buffers":[
		{
			"byteLength":2915232,
			"uri":"Gribok_rdy.bin"
		}
	]
}
